# xmcd CD database file
#
# Track frame offsets:
#	150
#	10585
#	20975
#	33435
#	42492
#	54165
#	64585
#	74882
#	90922
#	113422
#	123282
#	141130
#	153742
#	165027
#	174777
#	185250
#	199382
#	205665
#	216610
#
# Disc length: 3055 seconds
#
# Revision: 1
# Processed by: cddbd v1.5.1PL2 Copyright (c) Steve Scherf et al.
# Submitted via: CDex 1.51
#
DISCID=020bed13
DTITLE=Eric Clapton - The Great Blues Works 1963-1965
DYEAR=1900
DGENRE=Blues
TTITLE0=I Wish You Would - The Yardbirds
TTITLE1=A Certain Girl - The Yardbirds
TTITLE2=Good Morning Little Schoolgirl - The Yardbirds
TTITLE3=I Ain't Got You - The Yardbirds
TTITLE4=Got To Hurry - The Yardbirds
TTITLE5=Putty (In Your Hand) - The Yardbirds
TTITLE6=She's So Respectable - The Yardbirds
TTITLE7=Louice - The Yardbirds
TTITLE8=Five Long Years - The Yardbirds
TTITLE9=I'm Your Witchdoctor - John Mayall and The Bluesbreakers
TTITLE10=Telephone Blues - John Mayall and The Bluesbleakers
TTITLE11=On Top Of The World - John Mayall and The Bluesbleakers
TTITLE12=Snake Drive - Eric Clapton
TTITLE13=Tribute To Elmore - Eric Clapton
TTITLE14=West Coast Idea - Eric Clapton
TTITLE15=Draggin' My Tail - Eric Clapton and Jimmy Page
TTITLE16=Choker - Eric Clapton and Ji,,y Page
TTITLE17=Miles Road - Eric Clapton
TTITLE18=Freight Loader - Eric Clapton and Jimmy Page
EXTD=
EXTT0=
EXTT1=
EXTT2=
EXTT3=
EXTT4=
EXTT5=
EXTT6=
EXTT7=
EXTT8=
EXTT9=
EXTT10=
EXTT11=
EXTT12=
EXTT13=
EXTT14=
EXTT15=
EXTT16=
EXTT17=
EXTT18=
PLAYORDER=
